<?xml version="1.0" encoding="utf-8"?>
<!-- Generator: Adobe Illustrator 26.2.0, SVG Export Plug-In . SVG Version: 6.00 Build 0)  -->
<svg version="1.1" id="Ebene_1" xmlns="http://www.w3.org/2000/svg" xmlns:xlink="http://www.w3.org/1999/xlink" x="0px" y="0px"
	 viewBox="0 0 132.2 19.8" style="enable-background:new 0 0 132.2 19.8;" xml:space="preserve">
<style type="text/css">
	.st0{enable-background:new    ;}
	.st1{fill:#FFA705;}
	.st2{fill:#4158D0;}
</style>
<g>
	<g class="st0">
		<path class="st1" d="M84.5,15.5h-0.3H84h-0.1l-0.7-0.2l0-0.1c0,0,0-0.1,0-0.2c0-0.3,0-0.7,0-1.1c0-0.3,0-0.5,0-0.7
			c0-0.3,0-0.5,0-0.7v-0.6c-0.1-0.5-0.1-1.1-0.1-1.7s0-1.2,0-1.8l0-1.7c0-0.2,0-0.5,0-0.9s0-0.7,0-0.9c0-0.2,0-0.4,0.2-0.6
			c0.1-0.1,0.3-0.1,0.6-0.1c0.4,0,0.9,0,1.6,0l0.4,0c0.7,0,1.1-0.1,1.2-0.1c0.2,0,0.3,0,0.3,0c0.2,0,0.3,0,0.3,0.1
			c0.1,0,0.1,0.1,0.2,0.2c0,0.1,0.1,0.1,0.1,0.2c0.1,0.2,0.3,0.4,0.4,0.6c0.2,0.3,0.4,0.5,0.5,0.7l1.1,1.7l0.5,0.8
			c0-0.3,0-0.5,0-0.7V6.2l0-1.2c0-0.1,0-0.1,0-0.2c0,0,0-0.1,0-0.1s0,0,0,0c0.1-0.1,0.3-0.2,0.4-0.2c0.1,0,0.2,0,0.3,0h0.9h0.2
			c0.1,0,0.2,0,0.5,0c0.2,0,0.4,0,0.6,0h0.6h0.5h0.2c0.3,0,0.5,0,0.6,0.1c0.1,0.1,0.2,0.3,0.2,0.6l0,0.2l0,0.3c0,0.1,0,0.2,0,0.3
			v0.2v0.1l0,0.2v0.5c0,0.2,0,0.5,0,0.9v1.2c0,0.3,0,0.7,0,1.2v0.9v0.6v2.6L95,15c0,0.3-0.1,0.4-0.3,0.5l-0.3,0l-0.3,0h-0.7h-1h-1
			h-0.2c-0.2,0-0.4,0-0.6-0.1c-0.1,0-0.2-0.1-0.3-0.2l-1.7-2.3c0,0-0.1-0.2-0.4-0.6c-0.1-0.1-0.2-0.2-0.2-0.3c0,0,0-0.1-0.1-0.1
			c0,0,0,0-0.1,0c-0.1,0-0.1,0-0.1,0.1v0.4c0,0.1,0,0.3,0,0.5v0.6V14c0,0.1,0,0.3,0,0.5v0.3v0.2l0,0.1c0,0.1,0,0.1-0.1,0.2
			c-0.1,0-0.1,0.1-0.3,0c-0.4,0-0.7,0-0.9,0.1c-0.1,0-0.4,0-0.7,0s-0.6,0-0.9,0C84.7,15.5,84.6,15.5,84.5,15.5z"/>
		<path class="st1" d="M99.5,15.2c-0.8-0.4-1.4-1-1.9-1.8c-0.5-1-0.8-2.1-0.8-3.4c0-0.9,0.2-1.8,0.5-2.5c0.3-0.7,0.8-1.4,1.4-1.9
			c0.6-0.5,1.3-0.9,2.1-1.1s1.7-0.4,2.6-0.4c1.4,0,2.8,0.4,4.3,1.1l-0.6,2.8c-0.1,0-0.2,0-0.3-0.1c-0.1,0-0.2-0.1-0.4-0.1
			c-0.6-0.2-1-0.2-1.3-0.3c-0.3,0-0.5-0.1-0.6-0.1c-0.7,0-1.2,0.2-1.6,0.6c-0.4,0.4-0.6,1.1-0.6,2.1c0,0.9,0.1,1.6,0.4,2
			c0.2,0.4,0.6,0.6,1,0.6c0.3,0,0.6-0.1,1-0.2c0-0.2,0-0.4,0-0.8l0-0.4c0-0.2,0-0.6,0-1.1V9.7c0-0.1,0-0.2,0-0.2
			c0,0,0.1-0.1,0.2-0.1c0,0,0.1,0,0.3,0h1.7c0.5,0,0.9,0,1,0c0.3,0,0.5,0,0.6,0c0.1,0,0.2,0.1,0.3,0.2s0.1,0.2,0.1,0.3
			c0,0.1,0,0.1,0,0.1v0.1v0.3V11v1.7v0.1c0,0,0,0.1,0,0.1c0,0.1,0,0.1,0,0.2v0.1c0,0.7,0,1.2,0,1.4c0,0.4-0.1,0.7-0.1,0.9
			c-0.3,0-0.5,0-0.6,0l-0.4,0h0c-0.1,0-0.2,0-0.2,0c0,0,0,0,0,0h0c0,0,0,0,0,0h-1.6h-0.1h-0.2h-0.2c0,0-0.1,0-0.1,0
			c0,0-0.1,0-0.1-0.1c-0.1-0.2-0.1-0.4-0.1-0.7c0-0.1,0-0.3-0.1-0.6c-0.1,0.6-0.4,1-1,1.3c-0.5,0.3-1.2,0.4-2,0.4
			C100.9,15.8,100.1,15.6,99.5,15.2z"/>
	</g>
	<g class="st0">
		<path class="st1" d="M25.9,15.5c-0.8-0.2-1.4-0.4-1.9-0.8c-0.1-0.4-0.2-0.8-0.3-1.2c-0.1-0.4-0.1-1-0.2-1.7v0
			c0-0.1,0.1-0.2,0.2-0.3c0.4,0.3,0.8,0.4,1.2,0.6c0.4,0.1,0.8,0.2,1.3,0.2h0.4l0.3,0c0.3,0,0.5,0,0.8-0.1c0.1-0.1,0.2-0.2,0.3-0.3
			l-0.9-0.4c-0.7-0.3-1.3-0.7-1.8-1c-0.6-0.4-1-0.9-1.2-1.5c-0.1-0.3-0.2-0.7-0.2-1.1c0-1,0.3-1.8,0.9-2.4c0.5-0.5,1.2-0.9,2.1-1.1
			C27.6,4.1,28.4,4,29.3,4c0.5,0,1.3,0.1,2.3,0.2c0.1,0,0.2,0,0.4,0.1l0.5,0.1c0.4,0.1,0.6,0.1,0.8,0.1c0,0,0,0,0.1,0
			c0,0,0.1,0.1,0.1,0.1c0,0.1,0.1,0.1,0.1,0.1h0h0l0,0.3c0,0.2,0,0.3,0,0.5c0,0.3,0,0.6,0,0.9c0,0.3,0,0.5,0,0.6
			c-0.1,0.2-0.2,0.4-0.3,0.5l-1.5-0.2h-0.2h-0.2c-0.4,0-0.8,0-1.3,0.1l-0.5,0.1c-0.1,0-0.2,0-0.2,0.1c0,0.3,0.2,0.5,0.5,0.7
			c0.2,0.1,0.3,0.2,0.5,0.2s0.3,0.1,0.3,0.1c0.8,0.2,1.5,0.6,2.1,1.2c0.3,0.3,0.5,0.5,0.6,0.8c0.2,0.3,0.2,0.6,0.2,0.9
			c0,0.2,0,0.3-0.1,0.5c-0.1,0.8-0.4,1.5-0.9,2.1c-0.5,0.5-1.2,0.9-2,1.2c-0.7,0.2-1.5,0.4-2.5,0.4C27.4,15.8,26.7,15.7,25.9,15.5z"
			/>
		<path class="st1" d="M36,15.8c-0.2,0-0.3,0-0.3-0.1c-0.1,0-0.1-0.1-0.1-0.2c0-0.2,0-0.8-0.1-1.6c0-0.1,0-0.3,0-0.7
			c0-0.4,0-0.7-0.1-0.9l0.1-0.1l0.5-0.1h1c0.1,0,0.2,0,0.3,0c0.1,0,0.2,0,0.3,0h0.4l0.1,0c0,0,0.1,0,0.1,0c0,0,0.1,0,0.1,0
			c0,0,0.1,0,0.1,0c0,0,0.1,0,0.1,0c0,0,0.1,0,0.1,0l0.4,0.1l0.1,0h0h0.1c0.2,0.1,0.3,0.1,0.4,0.2c0.1,0.1,0.1,0.2,0.1,0.3
			c0,0,0.1,0.1,0.1,0.3s0,0.3,0.1,0.5c0,0.3,0,0.6,0,0.9c0,0.2,0,0.4,0,0.5c0,0.1,0,0.2,0,0.2v0.2c0,0,0,0.1,0,0.1
			c0,0.1,0,0.1,0,0.2v0c0,0.1-0.1,0.2-0.3,0.2c-0.1,0-0.1,0-0.2,0c-0.1,0-0.1,0-0.2,0c-0.1,0-0.2,0-0.4,0h-0.1h-0.2
			c-0.1,0-0.1,0-0.2,0h-0.1c-0.7,0-1.1,0-1.2,0c-0.2,0-0.3,0-0.4,0l-0.3,0C36.1,15.8,36.1,15.8,36,15.8z"/>
		<path class="st1" d="M44.8,15.4c-0.5,0-0.9,0-1.1,0l-1.3,0c-0.1,0-0.2,0-0.3-0.1c-0.1-0.1-0.1-0.2-0.1-0.3v-3
			c0.7-0.7,1.3-1.3,1.8-1.8c0.3-0.2,0.5-0.5,0.8-0.8c0.2-0.3,0.4-0.5,0.4-0.5c0.2-0.3,0.3-0.4,0.4-0.5C45.4,8.1,45.5,8,45.5,8
			c0,0,0-0.1-0.1-0.1l-3.1-0.1c-0.2,0-0.3-0.1-0.5-0.4c-0.1-0.2-0.1-0.4-0.1-0.8c0-0.2,0-0.4,0-0.8c0-0.1,0-0.2,0-0.3
			c0-0.2,0-0.3,0-0.4c0-0.2,0-0.3,0-0.4V4.7l0.1-0.1c0.1-0.1,0.2-0.1,0.3-0.1c0.1,0,0.1,0,0.2,0l0.2,0c0.4,0,0.8,0,1.2,0
			c0.4,0,0.8,0,1.2,0c1,0,1.8,0,2.3,0l2.4,0c0.6,0,1.1,0,1.4,0.1c0.1,0.1,0.2,0.1,0.3,0.1c0,0.1,0,0.1,0,0.1v2.6
			c0,0.1,0,0.3-0.1,0.5c-0.1,0.2-0.3,0.5-0.5,0.9c-0.5,0.7-1.4,1.9-2.9,3.4c0.5,0,0.8,0,1.1,0h1h0.9c0.1,0,0.2,0,0.3,0.1
			c0.1,0.1,0.1,0.1,0.1,0.2V15v0c0,0.1,0,0.1-0.1,0.2c-0.1,0-0.2,0.1-0.4,0.1c-0.1,0-0.4,0-0.7,0h-2.9
			C46.1,15.4,45.3,15.4,44.8,15.4z"/>
		<path class="st1" d="M55,15.5c-0.5,0-1-0.1-1.4-0.2c0,0-0.1-0.1-0.1-0.2c0-0.1,0-0.2,0-0.2l-0.3-6V8.6c0-0.1,0-0.2,0-0.4
			c0-0.2,0-0.5,0-0.8l0-0.8c0-0.2,0-0.4,0-0.5c0-0.3,0-0.6,0-0.9c0-0.1,0-0.2,0-0.2c0,0,0-0.1,0-0.1c0,0,0.1,0,0.1-0.1
			s0.1-0.1,0.2-0.1c0.1-0.1,0.3-0.1,0.5-0.1H55h0.3c0.1,0,0.3,0,0.6,0c0.3,0,0.6,0,0.8,0h0.8H58h0.2c0.3,0,0.5,0,0.6,0.1
			C58.9,4.7,59,4.9,59,5.2v0.2c0,0,0,0.1,0,0.1c0,0,0,0.1,0,0.1l0,0.3l0,0.2c0,0,0,0.1,0,0.1c0,0,0,0.1,0,0.2c0,0.3,0,0.5,0,0.6
			l0,0.7h0.4c0.1,0,0.3,0,0.5,0c0.2,0,0.4,0,0.5,0c0.1,0,0.2,0,0.4,0l0-1.1c0-0.1,0-0.2,0-0.4l0-0.7V5.4c0-0.2,0-0.3,0-0.5
			c0-0.1,0-0.2,0.1-0.3c0.1-0.1,0.1-0.1,0.2-0.1c0.1,0,0.2,0,0.5,0l0.4,0c0.3,0,0.6,0,0.8,0h0.9c0.4,0,0.8,0,0.9,0
			c0.4,0,0.6,0,0.8,0h0.4c0.3,0,0.4,0,0.5,0.1c0.1,0,0.1,0.1,0.1,0.2c0,0.1,0,0.2,0,0.4c0,0.4,0,1,0,1.7c0,0.7-0.1,1.3-0.1,1.7
			c0,0.1,0,0.1,0,0.2c0,0,0,0.1,0,0.1c0,0,0,0,0,0.1L66.1,15c0,0.1,0,0.1-0.1,0.2c-0.1,0.1-0.2,0.1-0.3,0.1h-4.5c0,0-0.1,0-0.1-0.1
			c0-0.1-0.1-0.1-0.1-0.2c0-0.1,0-0.1,0-0.2c0-0.1,0-0.2,0-0.4l-0.2-3h-0.1c-0.3,0-0.5,0-0.7,0c-0.4,0-0.7,0-0.8,0h-0.1
			c-0.1,0-0.1,0.1-0.1,0.3c0,1.4,0,2.2,0,2.6c0,0.1,0,0.3,0,0.6c0,0.3-0.1,0.4-0.3,0.5l-0.2,0c-0.9,0-1.4,0.1-1.8,0.1
			C55.9,15.5,55.4,15.5,55,15.5z"/>
	</g>
	<g>
		<path class="st2" d="M76,15.9c1.1-0.3,1.8-0.8,2.2-1.1c0.4-0.3,1.5-1.2,2.2-2.8c0.6-1.4,0.4-2.7,0.4-3.3c-0.2-1.4-0.8-2.3-1.1-2.7
			c-0.3-0.4-0.7-1-1.5-1.6c-0.2-0.1-0.7-0.4-1.4-0.6c-0.3-0.1-0.9-0.2-1.7-0.2c-1,0-2.5,0-4,1.1c-1,0.7-1.4,1.6-1.6,2
			c-0.7,1.3-0.7,2.6-0.6,3.8c0,1.2,0.2,1.7,0.3,2c0.3,0.7,0.7,1.1,1,1.5c0.3,0.3,0.9,1,2,1.4C72.6,15.7,74.1,16.4,76,15.9z"/>
		<path class="st1" d="M73.1,12.6c2.1,1.1,3.9,1.3,4.5,1.4c0.4,0,1.5,0.2,2.8-0.1c0.9-0.2,1.2-0.5,1.4-0.8c0.2-0.4,0.1-0.8,0.1-1
			c0-0.4-0.2-0.6-0.3-0.9c-0.2-0.4-0.6-1-0.7-0.9c-0.2,0.1,0.6,1.2,0.2,1.9c-0.5,0.8-2.4,0.5-3.5,0.3c-1.6-0.3-2.9-0.8-3.7-1.3
			c-1.2-0.6-1.9-1.2-3.3-2.5c-0.3-0.3-1.3-1.1-1.5-2.1c-0.1-0.5,0-0.7,0.1-0.8c0.2-0.3,0.6-0.5,0.9-0.6c0.5-0.2,0.8-0.1,0.8-0.2
			c0-0.1-0.7-0.2-1.5,0c-0.5,0.1-1.1,0.2-1.4,0.7c-0.2,0.3-0.2,0.5-0.2,0.7c-0.1,0.5,0.1,0.9,0.3,1.4c0.2,0.5,0.6,1.1,1.3,2
			c0.7,0.8,1.4,1.3,1.5,1.5C71.1,11.4,71.9,12,73.1,12.6z"/>
	</g>
</g>
</svg>
