<?xml version="1.0" encoding="utf-8"?>
<!-- Generator: Adobe Illustrator 27.7.0, SVG Export Plug-In . SVG Version: 6.00 Build 0)  -->
<svg version="1.1" id="图层_1" xmlns="http://www.w3.org/2000/svg" xmlns:xlink="http://www.w3.org/1999/xlink" x="0px" y="0px"
	 viewBox="0 0 270.9 40" style="enable-background:new 0 0 270.9 40;" xml:space="preserve">
<style type="text/css">
	.st0{fill:#FFA705;}
	.st1{fill:#2856F8;}
</style>
<g>
	<path class="st0" d="M193.5,37.8h-1h-0.6h-0.3l-2.2-0.6v-0.3c0,0,0-0.3,0-0.6c0-0.9,0-2.2,0-3.5c0-0.9,0-1.6,0-2.2
		c0-0.9,0-1.6,0-2.2v-1.9c-0.3-1.6-0.3-3.5-0.3-5.3c0-1.9,0-3.8,0-5.6v-5.3c0-0.6,0-1.6,0-2.8c0-1.3,0-2.2,0-2.8
		c0-0.6,0-1.3,0.6-1.9c0.3-0.3,1-0.3,1.9-0.3c1.3,0,2.9,0,5.1,0h1.3c2.2,0,3.5-0.3,3.8-0.3c0.6,0,1,0,1,0c0.6,0,1,0,1,0.3
		c0.3,0,0.3,0.3,0.6,0.6c0,0.3,0.3,0.3,0.3,0.6c0.3,0.6,1,1.3,1.3,1.9c0.6,0.9,1.3,1.6,1.6,2.2L211,13l1.6,2.5c0-0.9,0-1.6,0-2.2
		V8.6V4.8c0-0.3,0-0.3,0-0.6V3.9c0.3-0.3,1-0.6,1.3-0.6c0.3,0,0.6,0,1,0h2.9h0.6c0.3,0,0.6,0,1.6,0c0.6,0,1.3,0,1.9,0h1.9h1.6h0.6
		c1,0,1.6,0,1.9,0.3c0.3,0.3,0.6,0.9,0.6,1.9v0.6V7c0,0.3,0,0.6,0,0.9v0.6v0.3v0.6v1.6c0,0.6,0,1.6,0,2.8v3.8c0,0.9,0,2.2,0,3.8v2.8
		v1.9v8.2l-1.6,1.9c0,0.9-0.3,1.3-1,1.6h-1h-1h-2.2h-3.2h-3.2h-0.6c-0.6,0-1.3,0-1.9-0.3c-0.3,0-0.6-0.3-1-0.6l-5.4-7.2
		c0,0-0.3-0.6-1.3-1.9c-0.3-0.3-0.6-0.6-0.6-0.9c0,0,0-0.3-0.3-0.3c0,0,0,0-0.3,0c-0.3,0-0.3,0-0.3,0.3V28c0,0.3,0,0.9,0,1.6v1.9
		v1.6c0,0.3,0,0.9,0,1.6v0.9v0.6v0.3c0,0.3,0,0.3-0.3,0.6c-0.3,0-0.3,0.3-1,0c-1.3,0-2.2,0-2.9,0.3c-0.3,0-1.3,0-2.2,0
		c-1,0-1.9,0-2.9,0C194.1,37.8,193.8,37.8,193.5,37.8z"/>
	<path class="st0" d="M241.1,36.8c-2.5-1.3-4.4-3.1-6-5.6c-1.6-3.1-2.5-6.6-2.5-10.7c0-2.8,0.6-5.6,1.6-7.8c1-2.2,2.5-4.4,4.4-6
		c1.9-1.6,4.1-2.8,6.7-3.5c2.5-0.6,5.4-1.3,8.2-1.3c4.4,0,8.9,1.3,13.6,3.5l-1.9,8.8c-0.3,0-0.6,0-1-0.3c-0.3,0-0.6-0.3-1.3-0.3
		c-1.9-0.6-3.2-0.6-4.1-0.9c-1,0-1.6-0.3-1.9-0.3c-2.2,0-3.8,0.6-5.1,1.9c-1.3,1.3-1.9,3.5-1.9,6.6c0,2.8,0.3,5,1.3,6.3
		c0.6,1.3,1.9,1.9,3.2,1.9c1,0,1.9-0.3,3.2-0.6c0-0.6,0-1.3,0-2.5v-1.3c0-0.6,0-1.9,0-3.5v-1.6c0-0.3,0-0.6,0-0.6s0.3-0.3,0.6-0.3
		c0,0,0.3,0,1,0h5.4c1.6,0,2.9,0,3.2,0c1,0,1.6,0,1.9,0c0.3,0,0.6,0.3,1,0.6c0.3,0.3,0.3,0.6,0.3,0.9c0,0.3,0,0.3,0,0.3v0.3v0.9v1.9
		V29v0.3v0.3c0,0.3,0,0.3,0,0.6v0.3c0,2.2,0,3.8,0,4.4c0,1.3-0.3,2.2-0.3,2.8c-1,0-1.6,0-1.9,0h-1.3c-0.3,0-0.6,0-0.6,0h-5.1h-0.3
		h-0.6h-0.6h-0.3c0,0-0.3,0-0.3-0.3c-0.3-0.6-0.3-1.3-0.3-2.2c0-0.3,0-0.9-0.3-1.9c-0.3,1.9-1.3,3.1-3.2,4.1
		c-1.6,0.9-3.8,1.3-6.3,1.3C245.5,38.7,243,38.1,241.1,36.8z"/>
	<path class="st0" d="M7.6,37.8c-2.5-0.6-4.4-1.3-6-2.5c-0.3-1.3-0.6-2.5-1-3.8c-0.3-1.3-0.3-3.1-0.6-5.3c0-0.3,0.3-0.6,0.6-0.9
		c1.3,0.9,2.5,1.3,3.8,1.9c1.3,0.3,2.5,0.6,4.1,0.6h1.3h1c1,0,1.6,0,2.5-0.3c0.3-0.3,0.6-0.6,1-0.9l-2.9-1.3
		c-2.2-0.9-4.1-2.2-5.7-3.1c-1.9-1.3-3.2-2.8-3.8-4.7c-0.3-0.9-0.6-2.2-0.6-3.5c0-3.1,1-5.6,2.9-7.5c1.6-1.6,3.8-2.8,6.7-3.5
		C13,2,15.5,1.7,18.4,1.7c1.6,0,4.1,0.3,7.3,0.6c0.3,0,0.6,0,1.3,0.3l1.6,0.3c1.3,0.3,1.9,0.3,2.5,0.3c0,0,0,0,0.3,0l0.3,0.3
		c0,0.3,0.3,0.3,0.3,0.3v0.9c0,0.6,0,0.9,0,1.6c0,0.9,0,1.9,0,2.8c0,0.9,0,1.6,0,1.9c-0.3,0.6-0.6,1.3-1,1.6L26.3,12h-0.6h-0.6
		c-1.3,0-2.5,0-4.1,0.3l-1.6,0.3c-0.3,0-0.6,0-0.6,0.3c0,0.9,0.6,1.6,1.6,2.2c0.6,0.3,1,0.6,1.6,0.6c0.6,0,1,0.3,1,0.3
		c2.5,0.6,4.8,1.9,6.7,3.8c1,0.9,1.6,1.6,1.9,2.5c0.6,0.9,0.6,1.9,0.6,2.8c0,0.6,0,0.9-0.3,1.6c-0.3,2.5-1.3,4.7-2.9,6.6
		c-1.6,1.6-3.8,2.8-6.3,3.8c-2.2,0.6-4.8,1.3-7.9,1.3C12.4,38.7,10.2,38.4,7.6,37.8z"/>
	<path class="st0" d="M39.7,38.7c-0.6,0-1,0-1-0.3c-0.3,0-0.3-0.3-0.3-0.6c0-0.6,0-2.5-0.3-5c0-0.3,0-0.9,0-2.2s0-2.2-0.3-2.8
		l0.3-0.3l1.6-0.3h3.2c0.3,0,0.6,0,1,0c0.3,0,0.6,0,1,0H46h0.3h0.3h0.3h0.3h0.3h0.3l1.3,0.3h0.3h0.3c0.6,0.3,1,0.3,1.3,0.6
		c0.3,0.3,0.3,0.6,0.3,0.9c0,0,0.3,0.3,0.3,0.9c0,0.6,0,0.9,0.3,1.6c0,0.9,0,1.9,0,2.8c0,0.6,0,1.3,0,1.6c0,0.3,0,0.6,0,0.6v0.6v0.3
		c0,0.3,0,0.3,0,0.6c0,0.3-0.3,0.6-1,0.6c-0.3,0-0.3,0-0.6,0c-0.3,0-0.3,0-0.6,0c-0.3,0-0.6,0-1.3,0h-0.3h-0.6c-0.3,0-0.3,0-0.6,0
		h-0.3c-2.2,0-3.5,0-3.8,0c-0.6,0-1,0-1.3,0h-1C40,38.7,40,38.7,39.7,38.7z"/>
	<path class="st0" d="M67.6,37.5c-1.6,0-2.9,0-3.5,0H60c-0.3,0-0.6,0-1-0.3c-0.3-0.3-0.3-0.6-0.3-0.9v-9.4c2.2-2.2,4.1-4.1,5.7-5.6
		c1-0.6,1.6-1.6,2.5-2.5c0.6-0.9,1.3-1.6,1.3-1.6c0.6-0.9,1-1.3,1.3-1.6c0-0.9,0.3-1.3,0.3-1.3s0-0.3-0.3-0.3l-9.8-0.3
		c-0.6,0-1-0.3-1.6-1.3c-0.3-0.6-0.3-1.3-0.3-2.5c0-0.6,0-1.3,0-2.5c0-0.3,0-0.6,0-0.9c0-0.6,0-0.9,0-1.3c0-0.6,0-0.9,0-1.3l0.3-0.3
		c0.3-0.3,0.6-0.3,1-0.3c0.3,0,0.3,0,0.6,0h0.6c1.3,0,2.5,0,3.8,0c1.3,0,2.5,0,3.8,0c3.2,0,5.7,0,7.3,0h7.6c1.9,0,3.5,0,4.4,0.3
		c0.3,0.3,0.6,0.3,1,0.3c0,0.3,0,0.3,0,0.3v8.2c0,0.3,0,0.9-0.3,1.6c-0.3,0.6-1,1.6-1.6,2.8c-1.6,2.2-4.4,6-9.2,10.7
		c1.6,0,2.5,0,3.5,0h3.2h2.9c0.3,0,0.6,0,1,0.3c0.3,0.3,0.3,0.3,0.3,0.6v7.8c0,0.3,0,0.3-0.3,0.6c-0.3,0-0.6,0.3-1.3,0.3
		c-0.3,0-1.3,0-2.2,0h-9.2C71.7,37.5,69.2,37.5,67.6,37.5z"/>
	<path class="st0" d="M99.9,37.8c-1.6,0-3.2-0.3-4.4-0.6c0,0-0.3-0.3-0.3-0.6c0-0.3,0-0.6,0-0.6l-1-18.8v-0.9c0-0.3,0-0.6,0-1.3
		c0-0.6,0-1.6,0-2.5V9.8c0-0.6,0-1.3,0-1.6c0-0.9,0-1.9,0-2.8c0-0.3,0-0.6,0-0.6V4.5c0,0,0.3,0,0.3-0.3c0-0.3,0.3-0.3,0.6-0.3
		c0.3-0.3,1-0.3,1.6-0.3h3.2h1c0.3,0,1,0,1.9,0c1,0,1.9,0,2.5,0h2.5h1.6h0.6c1,0,1.6,0,1.9,0.3c0.3,0,0.6,0.6,0.6,1.6v0.6v0.3v0.3
		v0.9v0.6v0.3c0,0,0,0.3,0,0.6c0,0.9,0,1.6,0,1.9v2.2h1.3c0.3,0,1,0,1.6,0c0.6,0,1.3,0,1.6,0c0.3,0,0.6,0,1.3,0V9.8
		c0-0.3,0-0.6,0-1.3V6.4V6.1c0-0.6,0-0.9,0-1.6c0-0.3,0-0.6,0.3-0.9c0.3-0.3,0.3-0.3,0.6-0.3c0.3,0,0.6,0,1.6,0h1.3c1,0,1.9,0,2.5,0
		h2.9c1.3,0,2.5,0,2.9,0c1.3,0,1.9,0,2.5,0h1.3c1,0,1.3,0,1.6,0.3c0.3,0,0.3,0.3,0.3,0.6c0,0.3,0,0.6,0,1.3c0,1.3,0,3.1,0,5.3
		s-0.3,4.1-0.3,5.3c0,0.3,0,0.3,0,0.6v0.3c0,0,0,0,0,0.3l-0.6,18.8c0,0.3,0,0.3-0.3,0.6c-0.3,0.3-0.6,0.3-1,0.3h-14.3
		c0,0-0.3,0-0.3-0.3c0-0.3-0.3-0.3-0.3-0.6c0-0.3,0-0.3,0-0.6c0-0.3,0-0.6,0-1.3l-0.6-9.4H118c-1,0-1.6,0-2.2,0c-1.3,0-2.2,0-2.5,0
		h-0.3c-0.3,0-0.3,0.3-0.3,0.9c0,4.4,0,6.9,0,8.2c0,0.3,0,0.9,0,1.9c0,0.9-0.3,1.3-1,1.6H111c-2.9,0-4.4,0.3-5.7,0.3
		C102.8,37.8,101.2,37.8,99.9,37.8z"/>
	<path class="st1" d="M166.5,39c3.5-0.9,5.7-2.5,7-3.5c1.3-0.9,4.8-3.8,7-8.8c1.9-4.4,1.3-8.5,1.3-10.4c-0.6-4.4-2.5-7.2-3.5-8.5
		c-1-1.3-2.2-3.1-4.8-5c-0.6-0.3-2.2-1.3-4.4-1.9c-1-0.3-2.9-0.6-5.4-0.6c-3.2,0-7.9,0-12.7,3.5c-3.2,2.2-4.4,5-5.1,6.3
		c-2.2,4.1-2.2,8.2-1.9,11.9c0,3.8,0.6,5.3,1,6.3c1,2.2,2.2,3.5,3.2,4.7c1,0.9,2.9,3.1,6.3,4.4C155.8,38.4,160.5,40.6,166.5,39z"/>
	<path class="st0" d="M157.3,28.7c6.7,3.5,12.4,4.1,14.3,4.4c1.3,0,4.8,0.6,8.9-0.3c2.9-0.6,3.8-1.6,4.4-2.5
		c0.6-1.3,0.3-2.5,0.3-3.1c0-1.3-0.6-1.9-1-2.8c-0.6-1.3-1.9-3.1-2.2-2.8c-0.6,0.3,1.9,3.8,0.6,6c-1.6,2.5-7.6,1.6-11.1,0.9
		c-5.1-0.9-9.2-2.5-11.7-4.1c-3.8-1.9-6-3.8-10.5-7.8c-1-0.9-4.1-3.5-4.8-6.6c-0.3-1.6,0-2.2,0.3-2.5c0.6-0.9,1.9-1.6,2.9-1.9
		c1.6-0.6,2.5-0.3,2.5-0.6c0-0.3-2.2-0.6-4.8,0c-1.6,0.3-3.5,0.6-4.4,2.2c-0.6,0.9-0.6,1.6-0.6,2.2c-0.3,1.6,0.3,2.8,1,4.4
		c0.6,1.6,1.9,3.5,4.1,6.3c2.2,2.5,4.4,4.1,4.8,4.7C151,24.9,153.5,26.8,157.3,28.7z"/>
</g>
</svg>
